<svg width="1200" height="900" viewBox="0 0 1200 900" fill="none" xmlns="http://www.w3.org/2000/svg">
  <defs>
    <linearGradient id="bg" x1="0" y1="0" x2="1200" y2="900" gradientUnits="userSpaceOnUse">
      <stop stop-color="#050816"/>
      <stop offset="0.45" stop-color="#121B44"/>
      <stop offset="1" stop-color="#180B26"/>
    </linearGradient>
    <radialGradient id="glow1" cx="0" cy="0" r="1" gradientUnits="userSpaceOnUse" gradientTransform="translate(310 260) rotate(90) scale(220 220)">
      <stop stop-color="#7EF9FF" stop-opacity="0.95"/>
      <stop offset="1" stop-color="#7EF9FF" stop-opacity="0"/>
    </radialGradient>
    <radialGradient id="glow2" cx="0" cy="0" r="1" gradientUnits="userSpaceOnUse" gradientTransform="translate(880 260) rotate(90) scale(260 260)">
      <stop stop-color="#FF5CDA" stop-opacity="0.9"/>
      <stop offset="1" stop-color="#FF5CDA" stop-opacity="0"/>
    </radialGradient>
    <radialGradient id="glow3" cx="0" cy="0" r="1" gradientUnits="userSpaceOnUse" gradientTransform="translate(670 600) rotate(90) scale(280 280)">
      <stop stop-color="#6D7CFF" stop-opacity="0.78"/>
      <stop offset="1" stop-color="#6D7CFF" stop-opacity="0"/>
    </radialGradient>
    <filter id="blur40" x="-20%" y="-20%" width="140%" height="140%">
      <feGaussianBlur stdDeviation="40"/>
    </filter>
    <filter id="blur16" x="-20%" y="-20%" width="140%" height="140%">
      <feGaussianBlur stdDeviation="16"/>
    </filter>
  </defs>

  <rect width="1200" height="900" fill="url(#bg)"/>
  <rect width="1200" height="900" fill="url(#glow1)"/>
  <rect width="1200" height="900" fill="url(#glow2)"/>
  <rect width="1200" height="900" fill="url(#glow3)"/>

  <g opacity="0.6">
    <path d="M100 710C235 580 320 540 455 590C560 630 635 740 780 710C902 685 1010 548 1110 460" stroke="#8FE8FF" stroke-width="4" stroke-linecap="round"/>
    <path d="M40 540C170 450 255 390 390 430C510 466 580 575 710 565C850 555 950 430 1125 250" stroke="#F379FF" stroke-width="3" stroke-linecap="round" opacity="0.8"/>
    <path d="M160 250C290 180 398 170 515 230C630 290 760 410 890 400C1005 392 1070 320 1145 220" stroke="#7C8DFF" stroke-width="3" stroke-linecap="round" opacity="0.8"/>
  </g>

  <g filter="url(#blur16)">
    <circle cx="308" cy="260" r="52" fill="#89F9FF"/>
    <circle cx="430" cy="360" r="28" fill="#8F7BFF"/>
    <circle cx="558" cy="300" r="34" fill="#4BE5FF"/>
    <circle cx="876" cy="258" r="60" fill="#FF63D7"/>
    <circle cx="810" cy="430" r="32" fill="#FF9DF0"/>
    <circle cx="690" cy="610" r="55" fill="#7084FF"/>
    <circle cx="520" cy="675" r="36" fill="#8AFBFF"/>
    <circle cx="965" cy="640" r="42" fill="#4FD6FF"/>
  </g>

  <g opacity="0.95">
    <circle cx="308" cy="260" r="17" fill="#E5FFFF"/>
    <circle cx="430" cy="360" r="10" fill="#F6EBFF"/>
    <circle cx="558" cy="300" r="12" fill="#E8FEFF"/>
    <circle cx="876" cy="258" r="20" fill="#FFF0FB"/>
    <circle cx="810" cy="430" r="12" fill="#FFF1FE"/>
    <circle cx="690" cy="610" r="18" fill="#EEF0FF"/>
    <circle cx="520" cy="675" r="11" fill="#F2FFFF"/>
    <circle cx="965" cy="640" r="13" fill="#E9FFFF"/>
  </g>

  <g opacity="0.18" filter="url(#blur40)">
    <ellipse cx="600" cy="840" rx="430" ry="54" fill="#B4C7FF"/>
  </g>

  <g opacity="0.28">
    <path d="M227 608C267 553 325 507 389 494C456 480 533 505 585 562" stroke="white" stroke-width="2" stroke-linecap="round"/>
    <path d="M709 565C773 492 848 452 925 455C979 457 1032 485 1076 536" stroke="white" stroke-width="2" stroke-linecap="round"/>
    <path d="M460 694C530 637 592 616 659 627C720 637 777 682 835 756" stroke="white" stroke-width="2" stroke-linecap="round"/>
  </g>
</svg>
